<?xml version="1.0" encoding="UTF-8" standalone="no"?>
<!-- Created with Inkscape (http://www.inkscape.org/) -->

<svg
   xmlns:dc="http://purl.org/dc/elements/1.1/"
   xmlns:cc="http://creativecommons.org/ns#"
   xmlns:rdf="http://www.w3.org/1999/02/22-rdf-syntax-ns#"
   xmlns:svg="http://www.w3.org/2000/svg"
   xmlns="http://www.w3.org/2000/svg"
   xmlns:sodipodi="http://sodipodi.sourceforge.net/DTD/sodipodi-0.dtd"
   xmlns:inkscape="http://www.inkscape.org/namespaces/inkscape"
   height="80"
   width="90"
   viewBox="0 0 90 80"
   id="svg2"
   version="1.1"
   inkscape:version="0.91 r13725"
   sodipodi:docname="logo-white.svg">
  <defs
     id="defs8" />
  <sodipodi:namedview
     pagecolor="#ffffff"
     bordercolor="#666666"
     borderopacity="1"
     objecttolerance="10"
     gridtolerance="10"
     guidetolerance="10"
     inkscape:pageopacity="0"
     inkscape:pageshadow="2"
     inkscape:window-width="1920"
     inkscape:window-height="1003"
     id="namedview6"
     showgrid="true"
     units="px"
     inkscape:zoom="2.8284271"
     inkscape:cx="48.305753"
     inkscape:cy="20.585893"
     inkscape:window-x="0"
     inkscape:window-y="24"
     inkscape:window-maximized="1"
     inkscape:current-layer="svg2">
    <inkscape:grid
       type="xygrid"
       id="grid3195" />
  </sodipodi:namedview>
  <metadata
     id="metadata4">
    <rdf:RDF>
      <cc:Work
         rdf:about="">
        <dc:format>image/svg+xml</dc:format>
        <dc:type
           rdf:resource="http://purl.org/dc/dcmitype/StillImage" />
        <dc:title></dc:title>
      </cc:Work>
    </rdf:RDF>
  </metadata>
  <path
     style="opacity:1;fill:#ffffff;fill-opacity:1;stroke:#0000ff;stroke-width:0;stroke-miterlimit:4;stroke-dasharray:none;stroke-dashoffset:0;stroke-opacity:1"
     d="m 0.01004975,-0.007819 0,2 2.00000005,0 c 1.662,0 3,1.338 3,3 l 0,10 c 0,1.662 -1.338,3 -3,3 l -2.00000005,0 0,2 6.00000005,0 0,40 3,0 0,-40 72.0000002,0 0,40 3.000004,0 0,-40 6,0 0,-2 -2,0 c -1.662,0 -3,-1.338 -3,-3 l 0,-10 c 0,-1.662 1.338,-3 3,-3 l 2,0 0,-2 -90.00000425,0 z m 13.00000025,2 4,0 c 1.662,0 3,1.338 3,3 l 0,10 c 0,1.662 -1.338,3 -3,3 l -4,0 c -1.662,0 -3,-1.338 -3,-3 l 0,-10 c 0,-1.662 1.338,-3 3,-3 z m 15,0 4,0 c 1.662,0 3,1.338 3,3 l 0,10 c 0,1.662 -1.338,3 -3,3 l -4,0 c -1.662,0 -3,-1.338 -3,-3 l 0,-10 c 0,-1.662 1.338,-3 3,-3 z m 15,0 4,0 c 1.662,0 3,1.338 3,3 l 0,10 c 0,1.662 -1.338,3 -3,3 l -4,0 c -1.662,0 -3,-1.338 -3,-3 l 0,-10 c 0,-1.662 1.338,-3 3,-3 z m 15,0 4,0 c 1.662,0 3,1.338 3,3 l 0,10 c 0,1.662 -1.338,3 -3,3 l -4,0 c -1.662,0 -3,-1.338 -3,-3 l 0,-10 c 0,-1.662 1.338,-3 3,-3 z m 15,0 4,0 c 1.662,0 3,1.338 3,3 l 0,10 c 0,1.662 -1.338,3 -3,3 l -4,0 c -1.662,0 -3,-1.338 -3,-3 l 0,-10 c 0,-1.662 1.338,-3 3,-3 z m -73.00585925,58.01367 0,1.99805 2.00000005,0 c 1.661905,0 3,1.33812 3,3 l 0,9.999997 c 0,1.66187 -1.338095,3 -3,3 l -2.00000005,0 0,1.999992 89.99609325,0 0,-1.999992 -2,0 c -1.6619,0 -3,-1.33813 -3,-3 l 0,-9.999997 c 0,-1.66188 1.3381,-3 3,-3 l 2,0 0,-1.99805 -89.99609325,0 z m 13.00000025,1.99805 4,0 c 1.661906,0 3,1.33812 3,3 l 0,9.999997 c 0,1.66187 -1.338094,3 -3,3 l -4,0 c -1.661906,0 -3.000001,-1.33813 -3.000001,-3 l 0,-9.999997 c 0,-1.66188 1.338095,-3 3.000001,-3 z m 15,0 3.998047,0 c 1.661906,0 3,1.33812 3,3 l 0,9.999997 c 0,1.66187 -1.338093,3 -3,3 l -3.998047,0 c -1.661906,0 -3,-1.33813 -3,-3 l 0,-9.999997 c 0,-1.66188 1.338094,-3 3,-3 z m 14.998047,0 4,0 c 1.661906,0 3,1.33812 3,3 l 0,9.999997 c 0,1.66187 -1.338094,3 -3,3 l -4,0 c -1.661907,0 -3,-1.33813 -3,-3 l 0,-9.999997 c 0,-1.66188 1.338094,-3 3,-3 z m 15,0 4,0 c 1.661905,0 2.998046,1.33812 2.998046,3 l 0,9.999997 c 0,1.66187 -1.336141,3 -2.998046,3 l -4,0 c -1.661907,0 -3,-1.33813 -3,-3 l 0,-9.999997 c 0,-1.66188 1.338093,-3 3,-3 z m 14.998046,0 4,0 c 1.661905,0 3,1.33812 3,3 l 0,9.999997 c 0,1.66187 -1.338095,3 -3,3 l -4,0 c -1.661905,0 -3,-1.33813 -3,-3 l 0,-9.999997 c 0,-1.66188 1.338095,-3 3,-3 z"
     id="rect3197"
     inkscape:connector-curvature="0" />
  <text
     xml:space="preserve"
     style="font-style:normal;font-weight:normal;font-size:7.5px;line-height:100%;font-family:Sans;letter-spacing:0px;word-spacing:0px;fill:#ffffff;fill-opacity:1;stroke:none;stroke-width:1px;stroke-linecap:butt;stroke-linejoin:miter;stroke-opacity:1;"
     x="11.930223"
     y="55.364471"
     id="text3280"
     sodipodi:linespacing="100%"><tspan
       sodipodi:role="line"
       id="tspan3282"
       x="11.930223"
       y="55.364471"
       style="font-style:normal;font-variant:normal;font-weight:normal;font-stretch:normal;font-size:25px;line-height:100%;font-family:Sans;-inkscape-font-specification:'Sans, Normal';text-align:start;writing-mode:lr-tb;text-anchor:start;fill:#ffffff;fill-opacity:1;">Titles</tspan></text>
</svg>
